<svg width="1474" height="768" viewBox="0 0 1474 768" fill="none" xmlns="http://www.w3.org/2000/svg">
<g clip-path="url(#clip0)">
<rect width="1474" height="768" fill="white"/>
<rect x="267" y="424" width="197" height="298" fill="#D6A2A4"/>
<g style="mix-blend-mode:multiply">
<path d="M30.9985 564.33C30.9985 564.33 27 534.482 126.999 501.33C226.997 468.178 247.998 460.828 272.998 417.829C297.998 374.831 372 486.832 372 486.832C372 486.832 226.998 522.829 226.998 564.33C226.998 605.831 226.998 722.33 226.998 722.33H30.9985V564.33Z" fill="#E1929D"/>
</g>
<g style="mix-blend-mode:multiply">
<path d="M698.002 564.33C698.002 564.33 702 534.482 602.001 501.33C502.003 468.178 481.002 460.828 456.002 417.829C431.002 374.831 357 486.832 357 486.832C357 486.832 502.002 522.829 502.002 564.33C502.002 605.831 502.002 722.33 502.002 722.33H698.002V564.33Z" fill="#CDADB2"/>
</g>
<path d="M647 141L746.5 204.5C746.5 204.5 635 239.5 550 271C465 302.5 465 332 465 332V430C465 430 395 491 366.5 491C338 491 267 430 267 430V332C267 332 275.5 307.5 321 286C366.5 264.5 523 218.041 578 195C633 171.959 647 141 647 141Z" fill="#BA4C63"/>
<rect width="197" height="298" transform="matrix(-1 0 0 1 1211.5 424)" fill="#B3BBC8"/>
<g style="mix-blend-mode:multiply">
<path d="M1447.5 564.33C1447.5 564.33 1451.5 534.482 1351.5 501.33C1251.5 468.178 1230.5 460.828 1205.5 417.829C1180.5 374.831 1106.5 486.832 1106.5 486.832C1106.5 486.832 1251.5 522.829 1251.5 564.33C1251.5 605.831 1251.5 722.33 1251.5 722.33H1447.5V564.33Z" fill="#98BED1"/>
</g>
<g style="mix-blend-mode:multiply">
<path d="M780.498 564.33C780.498 564.33 776.5 534.482 876.499 501.33C976.497 468.178 997.498 460.828 1022.5 417.829C1047.5 374.831 1121.5 486.832 1121.5 486.832C1121.5 486.832 976.498 522.829 976.498 564.33C976.498 605.831 976.498 722.33 976.498 722.33H780.498V564.33Z" fill="#8F7689"/>
</g>
<path d="M831.5 141L732 204.5C732 204.5 843.5 239.5 928.5 271C1013.5 302.5 1013.5 332 1013.5 332V430C1013.5 430 1083.5 491 1112 491C1140.5 491 1211.5 430 1211.5 430V332C1211.5 332 1203 307.5 1157.5 286C1112 264.5 955.5 218.041 900.5 195C845.5 171.959 831.5 141 831.5 141Z" fill="#5E6F83"/>
<path d="M640 27H838V149C838 149 768 210 739.5 210C711 210 640 149 640 149V27Z" fill="#65485C"/>
<path d="M654.185 52.01V77H657.335V66.99H664.755C670.215 66.99 673.225 64.19 673.225 59.465C673.225 54.81 670.215 52.01 664.755 52.01H654.185ZM657.335 64.19V54.81H664.23C668.5 54.81 670.04 56.595 670.04 59.5C670.04 62.405 668.5 64.19 664.23 64.19H657.335ZM688.45 77H691.25V64.995C691.25 61.04 688.415 58.905 683.97 58.905C680.015 58.905 677.215 60.795 676.97 64.05H679.945C680.085 62.51 681.415 61.495 684.04 61.495C687.12 61.495 688.345 63.035 688.345 65.17V65.87H682.605C677.705 65.87 675.85 68.88 675.85 71.715C675.85 74.725 678.125 77.455 682.185 77.455C684.705 77.455 686.595 76.51 687.68 75.145H688.45V77ZM682.92 74.865C680.295 74.865 678.825 73.605 678.825 71.61C678.825 69.51 680.155 68.25 683.06 68.25H688.345V69.86C688.345 72.66 685.86 74.865 682.92 74.865ZM706.777 59.36H705.447C702.892 59.36 701.212 60.375 700.337 61.46H699.567V59.36H696.697V77H699.672V68.18C699.672 64.295 701.807 62.16 705.307 62.16H706.777V59.36ZM721.912 77H724.712V64.995C724.712 61.04 721.877 58.905 717.432 58.905C713.477 58.905 710.677 60.795 710.432 64.05H713.407C713.547 62.51 714.877 61.495 717.502 61.495C720.582 61.495 721.807 63.035 721.807 65.17V65.87H716.067C711.167 65.87 709.312 68.88 709.312 71.715C709.312 74.725 711.587 77.455 715.647 77.455C718.167 77.455 720.057 76.51 721.142 75.145H721.912V77ZM716.382 74.865C713.757 74.865 712.287 73.605 712.287 71.61C712.287 69.51 713.617 68.25 716.522 68.25H721.807V69.86C721.807 72.66 719.322 74.865 716.382 74.865ZM742.969 51.555V61.25H742.199C741.219 59.99 739.609 58.905 736.809 58.905C731.944 58.905 729.074 62.86 729.074 68.18C729.074 73.395 731.944 77.455 736.809 77.455C739.609 77.455 741.324 76.335 742.304 75.11H743.074V77H745.944V51.555H742.969ZM737.474 74.865C733.939 74.865 732.049 72.1 732.049 68.18C732.049 64.26 733.939 61.495 737.474 61.495C741.394 61.495 743.004 64.715 743.004 68.18C743.004 71.645 741.394 74.865 737.474 74.865ZM754.842 54.775V51.555H751.692V54.775H754.842ZM754.737 59.36H751.762V77H754.737V59.36ZM773.494 59.36V61.25H772.724C771.779 60.025 770.099 58.905 767.334 58.905C762.469 58.905 759.494 62.755 759.494 67.935C759.494 73.08 762.469 76.93 767.334 76.93C769.994 76.93 771.674 75.81 772.619 74.585H773.389V75.985C773.389 79.52 771.744 81.725 768.104 81.725C765.444 81.725 763.624 80.955 763.099 78.855H760.159C760.684 82.355 763.624 84.245 768.139 84.245C773.284 84.245 776.364 81.06 776.364 76.125V59.36H773.494ZM767.894 74.34C764.429 74.34 762.469 71.75 762.469 67.935C762.469 64.05 764.429 61.495 767.894 61.495C771.674 61.495 773.459 64.54 773.459 67.935C773.459 71.295 771.674 74.34 767.894 74.34ZM800.627 58.905C798.422 58.905 796.742 59.675 795.657 61.25H794.887C793.942 59.675 792.367 58.905 790.232 58.905C787.992 58.905 786.627 59.71 785.752 61.075H784.982V59.36H782.112V77H785.087V67.235C785.087 64.05 786.487 61.565 789.427 61.565C791.632 61.565 792.787 63.07 792.787 65.975V77H795.762V66.675C795.762 63.7 797.302 61.565 800.067 61.565C802.342 61.565 803.462 63 803.462 65.905V77H806.437V65.59C806.437 61.53 804.687 58.905 800.627 58.905ZM816.783 66.01C814.998 65.73 814.123 65.205 814.123 63.84C814.123 62.335 815.663 61.495 817.938 61.495C820.143 61.495 821.823 62.265 822.068 63.945H825.043C824.658 60.865 822.243 58.905 818.078 58.905C813.318 58.905 811.113 61.18 811.113 64.12C811.113 66.78 812.828 68.11 815.348 68.565L819.303 69.23C821.543 69.615 822.523 70.455 822.523 71.995C822.523 73.92 820.773 74.865 818.113 74.865C815.453 74.865 813.703 73.885 813.423 71.89H810.413C810.798 75.25 813.248 77.455 818.253 77.455C823.013 77.455 825.498 74.83 825.498 71.925C825.498 68.705 823.538 67.13 820.458 66.605L818.463 66.29L816.783 66.01Z" fill="white"/>
<path d="M1021.19 355.01V380H1030.53C1038.2 380 1042.08 374.995 1042.08 367.505C1042.08 359.98 1038.2 355.01 1030.53 355.01H1021.19ZM1024.34 377.13V357.88H1030.53C1036.59 357.88 1038.9 362.29 1038.9 367.505C1038.9 372.72 1036.59 377.13 1030.53 377.13H1024.34ZM1062.18 370.13C1062.07 365.79 1059.55 361.905 1054.3 361.905C1048.95 361.905 1045.8 365.58 1045.8 371.005C1045.8 376.43 1048.88 380.455 1054.37 380.455C1058.75 380.455 1061.3 378.145 1061.86 375.135H1058.85C1058.33 376.815 1056.86 377.865 1054.37 377.865C1050.73 377.865 1048.84 375.345 1048.74 371.145H1062.18V370.13ZM1054.23 364.495C1057.21 364.495 1058.92 366.42 1059.1 368.66H1048.91C1049.3 366.42 1051.05 364.495 1054.23 364.495ZM1078.74 374.68C1078.29 376.64 1076.82 377.865 1074.3 377.865C1070.34 377.865 1068.7 374.645 1068.7 371.11C1068.7 367.61 1070.31 364.495 1074.3 364.495C1076.71 364.495 1078.08 365.685 1078.64 367.47H1081.61C1081.02 364.215 1078.5 361.905 1074.3 361.905C1068.8 361.905 1065.72 365.86 1065.72 371.18C1065.72 376.395 1068.8 380.455 1074.3 380.455C1078.39 380.455 1081.05 378.145 1081.72 374.68H1078.74ZM1086.15 354.555V380H1089.13V354.555H1086.15ZM1106.1 380H1108.9V367.995C1108.9 364.04 1106.07 361.905 1101.62 361.905C1097.67 361.905 1094.87 363.795 1094.62 367.05H1097.6C1097.74 365.51 1099.07 364.495 1101.69 364.495C1104.77 364.495 1106 366.035 1106 368.17V368.87H1100.26C1095.36 368.87 1093.5 371.88 1093.5 374.715C1093.5 377.725 1095.78 380.455 1099.84 380.455C1102.36 380.455 1104.25 379.51 1105.33 378.145H1106.1V380ZM1100.57 377.865C1097.95 377.865 1096.48 376.605 1096.48 374.61C1096.48 372.51 1097.81 371.25 1100.71 371.25H1106V372.86C1106 375.66 1103.51 377.865 1100.57 377.865ZM1124.43 362.36H1123.1C1120.55 362.36 1118.87 363.375 1117.99 364.46H1117.22V362.36H1114.35V380H1117.33V371.18C1117.33 367.295 1119.46 365.16 1122.96 365.16H1124.43V362.36ZM1139.57 380H1142.37V367.995C1142.37 364.04 1139.53 361.905 1135.09 361.905C1131.13 361.905 1128.33 363.795 1128.09 367.05H1131.06C1131.2 365.51 1132.53 364.495 1135.16 364.495C1138.24 364.495 1139.46 366.035 1139.46 368.17V368.87H1133.72C1128.82 368.87 1126.97 371.88 1126.97 374.715C1126.97 377.725 1129.24 380.455 1133.3 380.455C1135.82 380.455 1137.71 379.51 1138.8 378.145H1139.57V380ZM1134.04 377.865C1131.41 377.865 1129.94 376.605 1129.94 374.61C1129.94 372.51 1131.27 371.25 1134.18 371.25H1139.46V372.86C1139.46 375.66 1136.98 377.865 1134.04 377.865ZM1151.91 362.36V357.04H1148.93V362.36H1145.89V364.95H1148.93V375.065C1148.93 378.81 1151.17 380 1154.99 380H1156.35V377.34H1155.06C1152.68 377.34 1151.91 376.43 1151.91 374.645V364.95H1156.35V362.36H1151.91ZM1164.4 357.775V354.555H1161.25V357.775H1164.4ZM1164.29 362.36H1161.32V380H1164.29V362.36ZM1173.88 380H1179.44L1185.36 362.36H1182.24L1177.48 377.2H1176.05L1171.11 362.36H1168.03L1173.88 380ZM1204.02 370.13C1203.92 365.79 1201.4 361.905 1196.15 361.905C1190.79 361.905 1187.64 365.58 1187.64 371.005C1187.64 376.43 1190.72 380.455 1196.22 380.455C1200.59 380.455 1203.15 378.145 1203.71 375.135H1200.7C1200.17 376.815 1198.7 377.865 1196.22 377.865C1192.58 377.865 1190.69 375.345 1190.58 371.145H1204.02V370.13ZM1196.08 364.495C1199.05 364.495 1200.77 366.42 1200.94 368.66H1190.76C1191.14 366.42 1192.89 364.495 1196.08 364.495Z" fill="white"/>
<path d="M281.395 355.01V380H284.545V355.01H281.395ZM309.331 361.905C307.126 361.905 305.446 362.675 304.361 364.25H303.591C302.646 362.675 301.071 361.905 298.936 361.905C296.696 361.905 295.331 362.71 294.456 364.075H293.686V362.36H290.816V380H293.791V370.235C293.791 367.05 295.191 364.565 298.131 364.565C300.336 364.565 301.491 366.07 301.491 368.975V380H304.466V369.675C304.466 366.7 306.006 364.565 308.771 364.565C311.046 364.565 312.166 366 312.166 368.905V380H315.141V368.59C315.141 364.53 313.391 361.905 309.331 361.905ZM329.057 364.495C332.592 364.495 334.482 367.26 334.482 371.18C334.482 375.1 332.592 377.865 329.057 377.865C325.137 377.865 323.527 374.645 323.527 371.18C323.527 367.715 325.137 364.495 329.057 364.495ZM320.587 362.36V387H323.562V378.11H324.332C325.277 379.37 326.922 380.455 329.722 380.455C334.587 380.455 337.457 376.5 337.457 371.18C337.457 365.965 334.587 361.905 329.722 361.905C326.922 361.905 325.207 363.025 324.227 364.25H323.457V362.36H320.587ZM357.415 370.13C357.31 365.79 354.79 361.905 349.54 361.905C344.185 361.905 341.035 365.58 341.035 371.005C341.035 376.43 344.115 380.455 349.61 380.455C353.985 380.455 356.54 378.145 357.1 375.135H354.09C353.565 376.815 352.095 377.865 349.61 377.865C345.97 377.865 344.08 375.345 343.975 371.145H357.415V370.13ZM349.47 364.495C352.445 364.495 354.16 366.42 354.335 368.66H344.15C344.535 366.42 346.285 364.495 349.47 364.495ZM372.127 362.36H370.797C368.242 362.36 366.562 363.375 365.687 364.46H364.917V362.36H362.047V380H365.022V371.18C365.022 367.295 367.157 365.16 370.657 365.16H372.127V362.36ZM387.261 380H390.061V367.995C390.061 364.04 387.226 361.905 382.781 361.905C378.826 361.905 376.026 363.795 375.781 367.05H378.756C378.896 365.51 380.226 364.495 382.851 364.495C385.931 364.495 387.156 366.035 387.156 368.17V368.87H381.416C376.516 368.87 374.661 371.88 374.661 374.715C374.661 377.725 376.936 380.455 380.996 380.455C383.516 380.455 385.406 379.51 386.491 378.145H387.261V380ZM381.731 377.865C379.106 377.865 377.636 376.605 377.636 374.61C377.636 372.51 378.966 371.25 381.871 371.25H387.156V372.86C387.156 375.66 384.671 377.865 381.731 377.865ZM399.604 362.36V357.04H396.629V362.36H393.584V364.95H396.629V375.065C396.629 378.81 398.869 380 402.684 380H404.049V377.34H402.754C400.374 377.34 399.604 376.43 399.604 374.645V364.95H404.049V362.36H399.604ZM412.091 357.775V354.555H408.941V357.775H412.091ZM411.986 362.36H409.011V380H411.986V362.36ZM421.573 380H427.138L433.053 362.36H429.938L425.178 377.2H423.743L418.808 362.36H415.728L421.573 380ZM451.717 370.13C451.612 365.79 449.092 361.905 443.842 361.905C438.487 361.905 435.337 365.58 435.337 371.005C435.337 376.43 438.417 380.455 443.912 380.455C448.287 380.455 450.842 378.145 451.402 375.135H448.392C447.867 376.815 446.397 377.865 443.912 377.865C440.272 377.865 438.382 375.345 438.277 371.145H451.717V370.13ZM443.772 364.495C446.747 364.495 448.462 366.42 448.637 368.66H438.452C438.837 366.42 440.587 364.495 443.772 364.495Z" fill="white"/>
<path d="M40.185 602.01V627H43.335V616.99H50.755C56.215 616.99 59.225 614.19 59.225 609.465C59.225 604.81 56.215 602.01 50.755 602.01H40.185ZM43.335 614.19V604.81H50.23C54.5 604.81 56.04 606.595 56.04 609.5C56.04 612.405 54.5 614.19 50.23 614.19H43.335ZM73.7049 609.36H72.3749C69.8199 609.36 68.1399 610.375 67.2649 611.46H66.4949V609.36H63.6249V627H66.5999V618.18C66.5999 614.295 68.7349 612.16 72.2349 612.16H73.7049V609.36ZM85.1994 608.905C79.6694 608.905 76.5194 612.965 76.5194 618.18C76.5194 623.395 79.6694 627.455 85.1994 627.455C90.6944 627.455 93.8794 623.395 93.8794 618.18C93.8794 612.965 90.6944 608.905 85.1994 608.905ZM85.1994 624.865C81.2794 624.865 79.4944 621.645 79.4944 618.18C79.4944 614.715 81.2794 611.495 85.1994 611.495C89.0844 611.495 90.9044 614.715 90.9044 618.18C90.9044 621.645 89.0844 624.865 85.1994 624.865ZM110.457 621.68C110.002 623.64 108.532 624.865 106.012 624.865C102.057 624.865 100.412 621.645 100.412 618.11C100.412 614.61 102.022 611.495 106.012 611.495C108.427 611.495 109.792 612.685 110.352 614.47H113.327C112.732 611.215 110.212 608.905 106.012 608.905C100.517 608.905 97.4373 612.86 97.4373 618.18C97.4373 623.395 100.517 627.455 106.012 627.455C110.107 627.455 112.767 625.145 113.432 621.68H110.457ZM133.163 617.13C133.058 612.79 130.538 608.905 125.288 608.905C119.933 608.905 116.783 612.58 116.783 618.005C116.783 623.43 119.863 627.455 125.358 627.455C129.733 627.455 132.288 625.145 132.848 622.135H129.838C129.313 623.815 127.843 624.865 125.358 624.865C121.718 624.865 119.828 622.345 119.723 618.145H133.163V617.13ZM125.218 611.495C128.193 611.495 129.908 613.42 130.083 615.66H119.898C120.283 613.42 122.033 611.495 125.218 611.495ZM150.605 601.555V611.25H149.835C148.855 609.99 147.245 608.905 144.445 608.905C139.58 608.905 136.71 612.86 136.71 618.18C136.71 623.395 139.58 627.455 144.445 627.455C147.245 627.455 148.96 626.335 149.94 625.11H150.71V627H153.58V601.555H150.605ZM145.11 624.865C141.575 624.865 139.685 622.1 139.685 618.18C139.685 614.26 141.575 611.495 145.11 611.495C149.03 611.495 150.64 614.715 150.64 618.18C150.64 621.645 149.03 624.865 145.11 624.865ZM159.048 609.36V620.56C159.048 624.795 161.428 627.455 165.768 627.455C168.148 627.455 170.108 626.475 171.088 625.11H171.858V627H174.728V609.36H171.753V618.915C171.753 622.1 169.618 624.795 166.503 624.795C163.528 624.795 162.023 623.185 162.023 619.93V609.36H159.048ZM190.531 609.36H189.201C186.646 609.36 184.966 610.375 184.091 611.46H183.321V609.36H180.451V627H183.426V618.18C183.426 614.295 185.561 612.16 189.061 612.16H190.531V609.36ZM205.666 627H208.466V614.995C208.466 611.04 205.631 608.905 201.186 608.905C197.231 608.905 194.431 610.795 194.186 614.05H197.161C197.301 612.51 198.631 611.495 201.256 611.495C204.336 611.495 205.561 613.035 205.561 615.17V615.87H199.821C194.921 615.87 193.066 618.88 193.066 621.715C193.066 624.725 195.341 627.455 199.401 627.455C201.921 627.455 203.811 626.51 204.896 625.145H205.666V627ZM200.136 624.865C197.511 624.865 196.041 623.605 196.041 621.61C196.041 619.51 197.371 618.25 200.276 618.25H205.561V619.86C205.561 622.66 203.076 624.865 200.136 624.865ZM213.913 601.555V627H216.888V601.555H213.913Z" fill="white"/>
<path d="M325.243 601.555C317.613 601.555 313.588 607.33 313.588 614.505C313.588 621.68 317.613 627.455 325.243 627.455C332.838 627.455 336.898 621.68 336.898 614.505C336.898 607.33 332.838 601.555 325.243 601.555ZM325.243 624.585C319.293 624.585 316.773 619.72 316.773 614.505C316.773 609.29 319.293 604.425 325.243 604.425C331.193 604.425 333.713 609.29 333.713 614.505C333.713 619.72 331.193 624.585 325.243 624.585ZM350.841 608.905C348.041 608.905 346.396 609.99 345.451 611.25H344.681V601.555H341.706V627H344.576V625.11H345.346C346.326 626.335 348.041 627.455 350.841 627.455C355.706 627.455 358.576 623.395 358.576 618.18C358.576 612.86 355.706 608.905 350.841 608.905ZM350.176 624.865C346.256 624.865 344.646 621.645 344.646 618.18C344.646 614.715 346.256 611.495 350.176 611.495C353.711 611.495 355.601 614.26 355.601 618.18C355.601 622.1 353.711 624.865 350.176 624.865ZM366.774 604.775V601.555H363.624V604.775H366.774ZM361.034 634C364.674 634 366.704 631.83 366.704 627.945V609.36H363.729V627.84C363.729 630.115 362.854 631.41 360.439 631.41H358.829V634H361.034ZM387.797 617.13C387.692 612.79 385.172 608.905 379.922 608.905C374.567 608.905 371.417 612.58 371.417 618.005C371.417 623.43 374.497 627.455 379.992 627.455C384.367 627.455 386.922 625.145 387.482 622.135H384.472C383.947 623.815 382.477 624.865 379.992 624.865C376.352 624.865 374.462 622.345 374.357 618.145H387.797V617.13ZM379.852 611.495C382.827 611.495 384.542 613.42 384.717 615.66H374.532C374.917 613.42 376.667 611.495 379.852 611.495ZM404.364 621.68C403.909 623.64 402.439 624.865 399.919 624.865C395.964 624.865 394.319 621.645 394.319 618.11C394.319 614.61 395.929 611.495 399.919 611.495C402.334 611.495 403.699 612.685 404.259 614.47H407.234C406.639 611.215 404.119 608.905 399.919 608.905C394.424 608.905 391.344 612.86 391.344 618.18C391.344 623.395 394.424 627.455 399.919 627.455C404.014 627.455 406.674 625.145 407.339 621.68H404.364ZM415.869 609.36V604.04H412.894V609.36H409.849V611.95H412.894V622.065C412.894 625.81 415.134 627 418.949 627H420.314V624.34H419.019C416.639 624.34 415.869 623.43 415.869 621.645V611.95H420.314V609.36H415.869ZM307.726 636.555C300.096 636.555 296.071 642.33 296.071 649.505C296.071 656.68 300.096 662.455 307.726 662.455C315.321 662.455 319.381 656.68 319.381 649.505C319.381 642.33 315.321 636.555 307.726 636.555ZM307.726 659.585C301.776 659.585 299.256 654.72 299.256 649.505C299.256 644.29 301.776 639.425 307.726 639.425C313.676 639.425 316.196 644.29 316.196 649.505C316.196 654.72 313.676 659.585 307.726 659.585ZM334.269 644.36H332.939C330.384 644.36 328.704 645.375 327.829 646.46H327.059V644.36H324.189V662H327.164V653.18C327.164 649.295 329.299 647.16 332.799 647.16H334.269V644.36ZM341.318 639.775V636.555H338.168V639.775H341.318ZM341.213 644.36H338.238V662H341.213V644.36ZM362.35 652.13C362.245 647.79 359.725 643.905 354.475 643.905C349.12 643.905 345.97 647.58 345.97 653.005C345.97 658.43 349.05 662.455 354.545 662.455C358.92 662.455 361.475 660.145 362.035 657.135H359.025C358.5 658.815 357.03 659.865 354.545 659.865C350.905 659.865 349.015 657.345 348.91 653.145H362.35V652.13ZM354.405 646.495C357.38 646.495 359.095 648.42 359.27 650.66H349.085C349.47 648.42 351.22 646.495 354.405 646.495ZM382.662 662V650.8C382.662 646.565 380.282 643.905 375.942 643.905C373.562 643.905 371.602 644.885 370.622 646.25H369.852V644.36H366.982V662H369.957V652.445C369.957 649.33 372.057 646.565 375.207 646.565C378.182 646.565 379.687 648.175 379.687 651.43V662H382.662ZM392.2 644.36V639.04H389.225V644.36H386.18V646.95H389.225V657.065C389.225 660.81 391.465 662 395.28 662H396.645V659.34H395.35C392.97 659.34 392.2 658.43 392.2 656.645V646.95H396.645V644.36H392.2ZM416.559 652.13C416.454 647.79 413.934 643.905 408.684 643.905C403.329 643.905 400.179 647.58 400.179 653.005C400.179 658.43 403.259 662.455 408.754 662.455C413.129 662.455 415.684 660.145 416.244 657.135H413.234C412.709 658.815 411.239 659.865 408.754 659.865C405.114 659.865 403.224 657.345 403.119 653.145H416.559V652.13ZM408.614 646.495C411.589 646.495 413.304 648.42 413.479 650.66H403.294C403.679 648.42 405.429 646.495 408.614 646.495ZM434.001 636.555V646.25H433.231C432.251 644.99 430.641 643.905 427.841 643.905C422.976 643.905 420.106 647.86 420.106 653.18C420.106 658.395 422.976 662.455 427.841 662.455C430.641 662.455 432.356 661.335 433.336 660.11H434.106V662H436.976V636.555H434.001ZM428.506 659.865C424.971 659.865 423.081 657.1 423.081 653.18C423.081 649.26 424.971 646.495 428.506 646.495C432.426 646.495 434.036 649.715 434.036 653.18C434.036 656.645 432.426 659.865 428.506 659.865Z" fill="white"/>
<path d="M543.003 602.01V627H546.153V616.99H553.573C559.033 616.99 562.043 614.19 562.043 609.465C562.043 604.81 559.033 602.01 553.573 602.01H543.003ZM546.153 614.19V604.81H553.048C557.318 604.81 558.858 606.595 558.858 609.5C558.858 612.405 557.318 614.19 553.048 614.19H546.153ZM577.268 627H580.068V614.995C580.068 611.04 577.233 608.905 572.788 608.905C568.833 608.905 566.033 610.795 565.788 614.05H568.763C568.903 612.51 570.233 611.495 572.858 611.495C575.938 611.495 577.163 613.035 577.163 615.17V615.87H571.423C566.523 615.87 564.668 618.88 564.668 621.715C564.668 624.725 566.943 627.455 571.003 627.455C573.523 627.455 575.413 626.51 576.498 625.145H577.268V627ZM571.738 624.865C569.113 624.865 567.643 623.605 567.643 621.61C567.643 619.51 568.973 618.25 571.878 618.25H577.163V619.86C577.163 622.66 574.678 624.865 571.738 624.865ZM595.596 609.36H594.266C591.711 609.36 590.031 610.375 589.156 611.46H588.386V609.36H585.516V627H588.491V618.18C588.491 614.295 590.626 612.16 594.126 612.16H595.596V609.36ZM610.73 627H613.53V614.995C613.53 611.04 610.695 608.905 606.25 608.905C602.295 608.905 599.495 610.795 599.25 614.05H602.225C602.365 612.51 603.695 611.495 606.32 611.495C609.4 611.495 610.625 613.035 610.625 615.17V615.87H604.885C599.985 615.87 598.13 618.88 598.13 621.715C598.13 624.725 600.405 627.455 604.465 627.455C606.985 627.455 608.875 626.51 609.96 625.145H610.73V627ZM605.2 624.865C602.575 624.865 601.105 623.605 601.105 621.61C601.105 619.51 602.435 618.25 605.34 618.25H610.625V619.86C610.625 622.66 608.14 624.865 605.2 624.865ZM618.977 601.555V627H621.952V601.555H618.977ZM627.693 601.555V627H630.668V601.555H627.693ZM651.704 617.13C651.599 612.79 649.079 608.905 643.829 608.905C638.474 608.905 635.324 612.58 635.324 618.005C635.324 623.43 638.404 627.455 643.899 627.455C648.274 627.455 650.829 625.145 651.389 622.135H648.379C647.854 623.815 646.384 624.865 643.899 624.865C640.259 624.865 638.369 622.345 638.264 618.145H651.704V617.13ZM643.759 611.495C646.734 611.495 648.449 613.42 648.624 615.66H638.439C638.824 613.42 640.574 611.495 643.759 611.495ZM656.336 601.555V627H659.311V601.555H656.336ZM511.473 637.01V662H514.623V651.99H522.043C527.503 651.99 530.513 649.19 530.513 644.465C530.513 639.81 527.503 637.01 522.043 637.01H511.473ZM514.623 649.19V639.81H521.518C525.788 639.81 527.328 641.595 527.328 644.5C527.328 647.405 525.788 649.19 521.518 649.19H514.623ZM544.992 644.36H543.662C541.107 644.36 539.427 645.375 538.552 646.46H537.782V644.36H534.912V662H537.887V653.18C537.887 649.295 540.022 647.16 543.522 647.16H544.992V644.36ZM556.487 643.905C550.957 643.905 547.807 647.965 547.807 653.18C547.807 658.395 550.957 662.455 556.487 662.455C561.982 662.455 565.167 658.395 565.167 653.18C565.167 647.965 561.982 643.905 556.487 643.905ZM556.487 659.865C552.567 659.865 550.782 656.645 550.782 653.18C550.782 649.715 552.567 646.495 556.487 646.495C560.372 646.495 562.192 649.715 562.192 653.18C562.192 656.645 560.372 659.865 556.487 659.865ZM581.745 656.68C581.29 658.64 579.82 659.865 577.3 659.865C573.345 659.865 571.7 656.645 571.7 653.11C571.7 649.61 573.31 646.495 577.3 646.495C579.715 646.495 581.08 647.685 581.64 649.47H584.615C584.02 646.215 581.5 643.905 577.3 643.905C571.805 643.905 568.725 647.86 568.725 653.18C568.725 658.395 571.805 662.455 577.3 662.455C581.395 662.455 584.055 660.145 584.72 656.68H581.745ZM604.451 652.13C604.346 647.79 601.826 643.905 596.576 643.905C591.221 643.905 588.071 647.58 588.071 653.005C588.071 658.43 591.151 662.455 596.646 662.455C601.021 662.455 603.576 660.145 604.136 657.135H601.126C600.601 658.815 599.131 659.865 596.646 659.865C593.006 659.865 591.116 657.345 591.011 653.145H604.451V652.13ZM596.506 646.495C599.481 646.495 601.196 648.42 601.371 650.66H591.186C591.571 648.42 593.321 646.495 596.506 646.495ZM613.982 651.01C612.197 650.73 611.322 650.205 611.322 648.84C611.322 647.335 612.862 646.495 615.137 646.495C617.342 646.495 619.022 647.265 619.267 648.945H622.242C621.857 645.865 619.442 643.905 615.277 643.905C610.517 643.905 608.312 646.18 608.312 649.12C608.312 651.78 610.027 653.11 612.547 653.565L616.502 654.23C618.742 654.615 619.722 655.455 619.722 656.995C619.722 658.92 617.972 659.865 615.312 659.865C612.652 659.865 610.902 658.885 610.622 656.89H607.612C607.997 660.25 610.447 662.455 615.452 662.455C620.212 662.455 622.697 659.83 622.697 656.925C622.697 653.705 620.737 652.13 617.657 651.605L615.662 651.29L613.982 651.01ZM631.961 651.01C630.176 650.73 629.301 650.205 629.301 648.84C629.301 647.335 630.841 646.495 633.116 646.495C635.321 646.495 637.001 647.265 637.246 648.945H640.221C639.836 645.865 637.421 643.905 633.256 643.905C628.496 643.905 626.291 646.18 626.291 649.12C626.291 651.78 628.006 653.11 630.526 653.565L634.481 654.23C636.721 654.615 637.701 655.455 637.701 656.995C637.701 658.92 635.951 659.865 633.291 659.865C630.631 659.865 628.881 658.885 628.601 656.89H625.591C625.976 660.25 628.426 662.455 633.431 662.455C638.191 662.455 640.676 659.83 640.676 656.925C640.676 653.705 638.716 652.13 635.636 651.605L633.641 651.29L631.961 651.01ZM648.189 639.775V636.555H645.039V639.775H648.189ZM648.084 644.36H645.109V662H648.084V644.36ZM669.606 662V650.8C669.606 646.565 667.226 643.905 662.886 643.905C660.506 643.905 658.546 644.885 657.566 646.25H656.796V644.36H653.926V662H656.901V652.445C656.901 649.33 659.001 646.565 662.151 646.565C665.126 646.565 666.631 648.175 666.631 651.43V662H669.606ZM687.964 644.36V646.25H687.194C686.249 645.025 684.569 643.905 681.804 643.905C676.939 643.905 673.964 647.755 673.964 652.935C673.964 658.08 676.939 661.93 681.804 661.93C684.464 661.93 686.144 660.81 687.089 659.585H687.859V660.985C687.859 664.52 686.214 666.725 682.574 666.725C679.914 666.725 678.094 665.955 677.569 663.855H674.629C675.154 667.355 678.094 669.245 682.609 669.245C687.754 669.245 690.834 666.06 690.834 661.125V644.36H687.964ZM682.364 659.34C678.899 659.34 676.939 656.75 676.939 652.935C676.939 649.05 678.899 646.495 682.364 646.495C686.144 646.495 687.929 649.54 687.929 652.935C687.929 656.295 686.144 659.34 682.364 659.34Z" fill="white"/>
<path d="M1044.65 604.88V602.01H1027.19V627H1030.34V615.87H1041.92V613H1030.34V604.88H1044.65ZM1047.78 609.36V620.56C1047.78 624.795 1050.16 627.455 1054.5 627.455C1056.88 627.455 1058.84 626.475 1059.82 625.11H1060.59V627H1063.46V609.36H1060.49V618.915C1060.49 622.1 1058.35 624.795 1055.24 624.795C1052.26 624.795 1050.76 623.185 1050.76 619.93V609.36H1047.78ZM1084.86 627V615.8C1084.86 611.565 1082.48 608.905 1078.14 608.905C1075.76 608.905 1073.8 609.885 1072.82 611.25H1072.05V609.36H1069.18V627H1072.16V617.445C1072.16 614.33 1074.26 611.565 1077.41 611.565C1080.38 611.565 1081.89 613.175 1081.89 616.43V627H1084.86ZM1102.24 621.68C1101.79 623.64 1100.32 624.865 1097.8 624.865C1093.84 624.865 1092.2 621.645 1092.2 618.11C1092.2 614.61 1093.81 611.495 1097.8 611.495C1100.21 611.495 1101.58 612.685 1102.14 614.47H1105.11C1104.52 611.215 1102 608.905 1097.8 608.905C1092.3 608.905 1089.22 612.86 1089.22 618.18C1089.22 623.395 1092.3 627.455 1097.8 627.455C1101.89 627.455 1104.55 625.145 1105.22 621.68H1102.24ZM1113.75 609.36V604.04H1110.77V609.36H1107.73V611.95H1110.77V622.065C1110.77 625.81 1113.01 627 1116.83 627H1118.19V624.34H1116.9C1114.52 624.34 1113.75 623.43 1113.75 621.645V611.95H1118.19V609.36H1113.75ZM1126.24 604.775V601.555H1123.09V604.775H1126.24ZM1126.13 609.36H1123.16V627H1126.13V609.36ZM1139.57 608.905C1134.04 608.905 1130.89 612.965 1130.89 618.18C1130.89 623.395 1134.04 627.455 1139.57 627.455C1145.06 627.455 1148.25 623.395 1148.25 618.18C1148.25 612.965 1145.06 608.905 1139.57 608.905ZM1139.57 624.865C1135.65 624.865 1133.86 621.645 1133.86 618.18C1133.86 614.715 1135.65 611.495 1139.57 611.495C1143.45 611.495 1145.27 614.715 1145.27 618.18C1145.27 621.645 1143.45 624.865 1139.57 624.865ZM1168.57 627V615.8C1168.57 611.565 1166.19 608.905 1161.85 608.905C1159.47 608.905 1157.51 609.885 1156.53 611.25H1155.76V609.36H1152.89V627H1155.87V617.445C1155.87 614.33 1157.97 611.565 1161.12 611.565C1164.09 611.565 1165.6 613.175 1165.6 616.43V627H1168.57ZM1185.25 627H1188.05V614.995C1188.05 611.04 1185.21 608.905 1180.77 608.905C1176.81 608.905 1174.01 610.795 1173.77 614.05H1176.74C1176.88 612.51 1178.21 611.495 1180.84 611.495C1183.92 611.495 1185.14 613.035 1185.14 615.17V615.87H1179.4C1174.5 615.87 1172.65 618.88 1172.65 621.715C1172.65 624.725 1174.92 627.455 1178.98 627.455C1181.5 627.455 1183.39 626.51 1184.48 625.145H1185.25V627ZM1179.72 624.865C1177.09 624.865 1175.62 623.605 1175.62 621.61C1175.62 619.51 1176.95 618.25 1179.86 618.25H1185.14V619.86C1185.14 622.66 1182.66 624.865 1179.72 624.865ZM1193.5 601.555V627H1196.47V601.555H1193.5Z" fill="white"/>
<path d="M834.335 624.025V602.01H831.185V627H848.37V624.025H834.335ZM859.998 608.905C854.468 608.905 851.318 612.965 851.318 618.18C851.318 623.395 854.468 627.455 859.998 627.455C865.493 627.455 868.678 623.395 868.678 618.18C868.678 612.965 865.493 608.905 859.998 608.905ZM859.998 624.865C856.078 624.865 854.293 621.645 854.293 618.18C854.293 614.715 856.078 611.495 859.998 611.495C863.883 611.495 865.703 614.715 865.703 618.18C865.703 621.645 863.883 624.865 859.998 624.865ZM886.236 609.36V611.25H885.466C884.521 610.025 882.841 608.905 880.076 608.905C875.211 608.905 872.236 612.755 872.236 617.935C872.236 623.08 875.211 626.93 880.076 626.93C882.736 626.93 884.416 625.81 885.361 624.585H886.131V625.985C886.131 629.52 884.486 631.725 880.846 631.725C878.186 631.725 876.366 630.955 875.841 628.855H872.901C873.426 632.355 876.366 634.245 880.881 634.245C886.026 634.245 889.106 631.06 889.106 626.125V609.36H886.236ZM880.636 624.34C877.171 624.34 875.211 621.75 875.211 617.935C875.211 614.05 877.171 611.495 880.636 611.495C884.416 611.495 886.201 614.54 886.201 617.935C886.201 621.295 884.416 624.34 880.636 624.34ZM898.004 604.775V601.555H894.854V604.775H898.004ZM897.899 609.36H894.924V627H897.899V609.36ZM915.676 621.68C915.221 623.64 913.751 624.865 911.231 624.865C907.276 624.865 905.631 621.645 905.631 618.11C905.631 614.61 907.241 611.495 911.231 611.495C913.646 611.495 915.011 612.685 915.571 614.47H918.546C917.951 611.215 915.431 608.905 911.231 608.905C905.736 608.905 902.656 612.86 902.656 618.18C902.656 623.395 905.736 627.455 911.231 627.455C915.326 627.455 917.986 625.145 918.651 621.68H915.676Z" fill="white"/>
<path d="M1275.19 602.01V627H1284.53C1292.2 627 1296.08 621.995 1296.08 614.505C1296.08 606.98 1292.2 602.01 1284.53 602.01H1275.19ZM1278.34 624.13V604.88H1284.53C1290.59 604.88 1292.9 609.29 1292.9 614.505C1292.9 619.72 1290.59 624.13 1284.53 624.13H1278.34ZM1312.12 627H1314.92V614.995C1314.92 611.04 1312.08 608.905 1307.64 608.905C1303.68 608.905 1300.88 610.795 1300.64 614.05H1303.61C1303.75 612.51 1305.08 611.495 1307.71 611.495C1310.79 611.495 1312.01 613.035 1312.01 615.17V615.87H1306.27C1301.37 615.87 1299.52 618.88 1299.52 621.715C1299.52 624.725 1301.79 627.455 1305.85 627.455C1308.37 627.455 1310.26 626.51 1311.35 625.145H1312.12V627ZM1306.59 624.865C1303.96 624.865 1302.49 623.605 1302.49 621.61C1302.49 619.51 1303.82 618.25 1306.73 618.25H1312.01V619.86C1312.01 622.66 1309.53 624.865 1306.59 624.865ZM1324.46 609.36V604.04H1321.48V609.36H1318.44V611.95H1321.48V622.065C1321.48 625.81 1323.72 627 1327.54 627H1328.9V624.34H1327.61C1325.23 624.34 1324.46 623.43 1324.46 621.645V611.95H1328.9V609.36H1324.46ZM1345.03 627H1347.83V614.995C1347.83 611.04 1345 608.905 1340.55 608.905C1336.6 608.905 1333.8 610.795 1333.55 614.05H1336.53C1336.67 612.51 1338 611.495 1340.62 611.495C1343.7 611.495 1344.93 613.035 1344.93 615.17V615.87H1339.19C1334.29 615.87 1332.43 618.88 1332.43 621.715C1332.43 624.725 1334.71 627.455 1338.77 627.455C1341.29 627.455 1343.18 626.51 1344.26 625.145H1345.03V627ZM1339.5 624.865C1336.88 624.865 1335.41 623.605 1335.41 621.61C1335.41 619.51 1336.74 618.25 1339.64 618.25H1344.93V619.86C1344.93 622.66 1342.44 624.865 1339.5 624.865ZM1362.41 608.905C1359.61 608.905 1357.97 609.99 1357.02 611.25H1356.25V601.555H1353.28V627H1356.15V625.11H1356.92C1357.9 626.335 1359.61 627.455 1362.41 627.455C1367.28 627.455 1370.15 623.395 1370.15 618.18C1370.15 612.86 1367.28 608.905 1362.41 608.905ZM1361.75 624.865C1357.83 624.865 1356.22 621.645 1356.22 618.18C1356.22 614.715 1357.83 611.495 1361.75 611.495C1365.28 611.495 1367.17 614.26 1367.17 618.18C1367.17 622.1 1365.28 624.865 1361.75 624.865ZM1386.05 627H1388.85V614.995C1388.85 611.04 1386.01 608.905 1381.57 608.905C1377.61 608.905 1374.81 610.795 1374.57 614.05H1377.54C1377.68 612.51 1379.01 611.495 1381.64 611.495C1384.72 611.495 1385.94 613.035 1385.94 615.17V615.87H1380.2C1375.3 615.87 1373.45 618.88 1373.45 621.715C1373.45 624.725 1375.72 627.455 1379.78 627.455C1382.3 627.455 1384.19 626.51 1385.28 625.145H1386.05V627ZM1380.52 624.865C1377.89 624.865 1376.42 623.605 1376.42 621.61C1376.42 619.51 1377.75 618.25 1380.66 618.25H1385.94V619.86C1385.94 622.66 1383.46 624.865 1380.52 624.865ZM1399.19 616.01C1397.41 615.73 1396.53 615.205 1396.53 613.84C1396.53 612.335 1398.07 611.495 1400.35 611.495C1402.55 611.495 1404.23 612.265 1404.48 613.945H1407.45C1407.07 610.865 1404.65 608.905 1400.49 608.905C1395.73 608.905 1393.52 611.18 1393.52 614.12C1393.52 616.78 1395.24 618.11 1397.76 618.565L1401.71 619.23C1403.95 619.615 1404.93 620.455 1404.93 621.995C1404.93 623.92 1403.18 624.865 1400.52 624.865C1397.86 624.865 1396.11 623.885 1395.83 621.89H1392.82C1393.21 625.25 1395.66 627.455 1400.66 627.455C1405.42 627.455 1407.91 624.83 1407.91 621.925C1407.91 618.705 1405.95 617.13 1402.87 616.605L1400.87 616.29L1399.19 616.01ZM1427.57 617.13C1427.46 612.79 1424.94 608.905 1419.69 608.905C1414.34 608.905 1411.19 612.58 1411.19 618.005C1411.19 623.43 1414.27 627.455 1419.76 627.455C1424.14 627.455 1426.69 625.145 1427.25 622.135H1424.24C1423.72 623.815 1422.25 624.865 1419.76 624.865C1416.12 624.865 1414.23 622.345 1414.13 618.145H1427.57V617.13ZM1419.62 611.495C1422.6 611.495 1424.31 613.42 1424.49 615.66H1414.3C1414.69 613.42 1416.44 611.495 1419.62 611.495Z" fill="white"/>
</g>
<defs>
<clipPath id="clip0">
<rect width="1474" height="768" fill="white"/>
</clipPath>
</defs>
</svg>
